<svg width="38" height="31" viewBox="0 0 38 31" fill="none" xmlns="http://www.w3.org/2000/svg">
<path fill-rule="evenodd" clip-rule="evenodd" d="M7.73326 3.69049H26.99C27.8412 3.69049 28.6576 4.00154 29.2595 4.55522C29.8613 5.1089 30.1995 5.85985 30.1995 6.64287V24.3424C30.1995 25.1254 29.8613 25.8764 29.2595 26.43C28.6576 26.9837 27.8412 27.2948 26.99 27.2948H7.73326C6.88206 27.2948 6.06572 26.9837 5.46383 26.43C4.86194 25.8764 4.5238 25.1254 4.5238 24.3424V6.64287C4.5238 5.85985 4.86194 5.1089 5.46383 4.55522C6.06572 4.00154 6.88206 3.69049 7.73326 3.69049V3.69049Z" stroke="#699BF7" stroke-linecap="round" stroke-linejoin="round"/>
<path d="M4.77895 9.59525H30.1995" stroke="#699BF7" stroke-linecap="round" stroke-linejoin="round"/>
<path fill-rule="evenodd" clip-rule="evenodd" d="M11.4498 19.4193V17.8265H12.862C13.9339 17.8265 14.6625 17.2434 14.6625 16.3916C14.6625 15.6137 13.9965 15.0232 12.8925 15.0232C11.7483 15.0232 11.0438 15.5635 10.9652 16.4935H8.77632C8.85816 14.5759 10.4629 13.2857 13.0096 13.2857C15.5178 13.2857 16.9123 14.5612 16.9043 16.0831C16.8963 17.3438 16.0345 18.1734 14.8197 18.4465V18.5838C16.394 18.7919 17.3504 19.7145 17.3504 21.1066C17.3504 22.9297 15.4857 24.2214 12.931 24.2214C10.3762 24.2214 8.63671 22.9356 8.53561 20.9678H10.7999C10.8705 21.8476 11.6857 22.4101 12.9005 22.4101C14.0992 22.4101 14.9385 21.8107 14.9385 20.9103C14.9385 19.9876 14.1538 19.4193 12.8844 19.4193H11.4498Z" fill="#699BF7"/>
<path fill-rule="evenodd" clip-rule="evenodd" d="M22.2015 23.9542V15.6713H22.0619L19.2873 17.4309V15.4055L22.2095 13.5529H24.5685V23.9542H22.2015Z" fill="#699BF7"/>
</svg>
